<?xml version="1.0" encoding="UTF-8"?>
<svg width="75px" height="75px" viewBox="0 0 75 75" version="1.1" xmlns="http://www.w3.org/2000/svg" xmlns:xlink="http://www.w3.org/1999/xlink">
    <title>5E977B28-0871-47B9-930C-56E55DB15FF8@2x</title>
    <defs>
        <linearGradient x1="50%" y1="100%" x2="50%" y2="0%" id="linearGradient-1">
            <stop stop-color="#FFC2CC" offset="0%"></stop>
            <stop stop-color="#FFF2F4" offset="100%"></stop>
        </linearGradient>
        <linearGradient x1="49.9998344%" y1="-9.41116206e-15%" x2="49.9998344%" y2="100%" id="linearGradient-2">
            <stop stop-color="#FD3A84" offset="0%"></stop>
            <stop stop-color="#FFA68D" offset="100%"></stop>
        </linearGradient>
    </defs>
    <g id="Page-3" stroke="none" stroke-width="1" fill="none" fill-rule="evenodd">
        <g id="Dialogs" transform="translate(-84.000000, -632.000000)" fill-rule="nonzero">
            <g id="error-(1)" transform="translate(84.000000, 632.000000)">
                <circle id="Oval" fill="url(#linearGradient-1)" cx="37.5" cy="37.5" r="37.5"></circle>
                <path d="M37.5,46.5723633 C36.7853027,46.5723633 36.2039062,47.1537598 36.2039062,47.868457 C36.2039062,48.5831543 36.7853027,49.1645508 37.5,49.1645508 C38.2146973,49.1645508 38.7960937,48.5831543 38.7960937,47.868457 C38.7960937,47.1537598 38.2146973,46.5723633 37.5,46.5723633 Z M37.5,25.8355957 C36.7853027,25.8355957 36.2039062,26.4169922 36.2039062,27.1316895 L36.2039062,37.5 C36.2039062,38.2145508 36.7853027,38.7960938 37.5,38.7960938 C38.2146973,38.7960938 38.7960937,38.2146973 38.7960937,37.5 L38.7960937,27.1316895 C38.7960937,26.4169922 38.2146973,25.8355957 37.5,25.8355957 Z M59.2394531,27.9583008 L47.0415527,15.7604004 C46.7985352,15.5173828 46.4689453,15.3808594 46.1251465,15.3808594 L28.8748535,15.3808594 C28.5310547,15.3808594 28.2014648,15.5173828 27.9584473,15.7604004 L15.7605469,27.9583008 C15.5175293,28.2013184 15.3808594,28.5310547 15.3808594,28.874707 L15.3808594,46.1251465 C15.3808594,46.4689453 15.5173828,46.7985352 15.7605469,47.0415527 L27.9584473,59.2394531 C28.2014648,59.4826172 28.5310547,59.6191406 28.8748535,59.6191406 L46.125293,59.6191406 C46.4690918,59.6191406 46.7986816,59.4826172 47.0416992,59.2394531 L59.2395996,47.0415527 C59.4826172,46.7985352 59.6192871,46.4687988 59.6192871,46.1251465 L59.6192871,28.874707 C59.6192871,28.5310547 59.4826172,28.2013184 59.2394531,27.9583008 L59.2394531,27.9583008 Z M37.5,51.7564453 C35.3560547,51.7564453 33.6118652,50.0122559 33.6118652,47.8683105 C33.6118652,45.7243652 35.3560547,43.9801758 37.5,43.9801758 C39.6439453,43.9801758 41.3881348,45.7243652 41.3881348,47.8683105 C41.3881348,50.0122559 39.6439453,51.7564453 37.5,51.7564453 Z M41.3881348,37.5 C41.3881348,39.6439453 39.6439453,41.3881348 37.5,41.3881348 C35.3560547,41.3881348 33.6118652,39.6439453 33.6118652,37.5 L33.6118652,27.1316895 C33.6118652,24.9877441 35.3560547,23.2435547 37.5,23.2435547 C39.6439453,23.2435547 41.3881348,24.9877441 41.3881348,27.1316895 L41.3881348,37.5 Z" id="Shape" fill="url(#linearGradient-2)"></path>
            </g>
        </g>
    </g>
</svg>