<svg width="75" height="75" viewBox="0 0 75 75" fill="none" xmlns="http://www.w3.org/2000/svg">
<circle cx="37.5" cy="37.5" r="37.5" fill="url(#paint0_linear_0_1)"/>
<mask id="mask0_0_1" style="mask-type:alpha" maskUnits="userSpaceOnUse" x="15" y="15" width="45" height="45">
<path d="M37.5 46.5724C36.7853 46.5724 36.2039 47.1538 36.2039 47.8685C36.2039 48.5832 36.7853 49.1646 37.5 49.1646C38.2147 49.1646 38.7961 48.5832 38.7961 47.8685C38.7961 47.1538 38.2147 46.5724 37.5 46.5724ZM37.5 25.8356C36.7853 25.8356 36.2039 26.417 36.2039 27.1317V37.5C36.2039 38.2146 36.7853 38.7961 37.5 38.7961C38.2147 38.7961 38.7961 38.2147 38.7961 37.5V27.1317C38.7961 26.417 38.2147 25.8356 37.5 25.8356ZM59.2395 27.9583L47.0416 15.7604C46.7985 15.5174 46.4689 15.3809 46.1251 15.3809H28.8749C28.5311 15.3809 28.2015 15.5174 27.9584 15.7604L15.7605 27.9583C15.5175 28.2013 15.3809 28.5311 15.3809 28.8747V46.1251C15.3809 46.4689 15.5174 46.7985 15.7605 47.0416L27.9584 59.2395C28.2015 59.4826 28.5311 59.6191 28.8749 59.6191H46.1253C46.4691 59.6191 46.7987 59.4826 47.0417 59.2395L59.2396 47.0416C59.4826 46.7985 59.6193 46.4688 59.6193 46.1251V28.8747C59.6193 28.5311 59.4826 28.2013 59.2395 27.9583ZM37.5 51.7564C35.3561 51.7564 33.6119 50.0123 33.6119 47.8683C33.6119 45.7244 35.3561 43.9802 37.5 43.9802C39.6439 43.9802 41.3881 45.7244 41.3881 47.8683C41.3881 50.0123 39.6439 51.7564 37.5 51.7564ZM41.3881 37.5C41.3881 39.6439 39.6439 41.3881 37.5 41.3881C35.3561 41.3881 33.6119 39.6439 33.6119 37.5V27.1317C33.6119 24.9877 35.3561 23.2436 37.5 23.2436C39.6439 23.2436 41.3881 24.9877 41.3881 27.1317V37.5Z" fill="url(#paint1_linear_0_1)"/>
<path d="M27 22H47V53H27V22Z" fill="url(#paint2_linear_0_1)"/>
</mask>
<g mask="url(#mask0_0_1)">
<rect x="12" y="14" width="51" height="47" fill="url(#paint3_linear_0_1)"/>
</g>
<path d="M32.3158 24V27.8571M42.4211 24V27.8571M26.6316 33.1157H48.1053M50 45.8571C50 46.8214 49.7348 47.7343 49.2674 48.5057C48.8221 49.2675 48.1895 49.8981 47.4321 50.3354C46.6746 50.7728 45.8182 51.0018 44.9474 51C43.6716 51 42.5095 50.5243 41.6253 49.7143C41.2337 49.38 40.8926 48.9686 40.6274 48.5057C40.1465 47.7091 39.8929 46.7921 39.8948 45.8571C39.8948 43.0157 42.1558 40.7143 44.9474 40.7143C46.4632 40.7143 47.8148 41.3957 48.7369 42.4629C49.5492 43.4004 49.9982 44.607 50 45.8571Z" stroke="white" stroke-width="1.5" stroke-miterlimit="10" stroke-linecap="round" stroke-linejoin="round"/>
<path d="M42.9768 45.8571L44.2274 47.13L46.9179 44.5971" stroke="white" stroke-width="1.5" stroke-linecap="round" stroke-linejoin="round"/>
<path d="M48.7368 32.3571V42.4629C47.8147 41.3957 46.4632 40.7143 44.9474 40.7143C42.1558 40.7143 39.8947 43.0157 39.8947 45.8571C39.8947 46.8214 40.16 47.7343 40.6274 48.5057C40.8926 48.9686 41.2337 49.38 41.6253 49.7143H32.3158C27.8947 49.7143 26 47.1429 26 43.2857V32.3571C26 28.5 27.8947 25.9286 32.3158 25.9286H42.4211C46.8421 25.9286 48.7368 28.5 48.7368 32.3571Z" stroke="white" stroke-width="1.5" stroke-miterlimit="10" stroke-linecap="round" stroke-linejoin="round"/>
<path d="M37.3621 39.0428H37.3747M32.6872 39.0428H32.6998M32.6872 42.9H32.6998" stroke="white" stroke-width="2" stroke-linecap="round" stroke-linejoin="round"/>
<defs>
<linearGradient id="paint0_linear_0_1" x1="37.5" y1="0" x2="37" y2="66" gradientUnits="userSpaceOnUse">
<stop stop-color="#FFEBEE"/>
<stop offset="1" stop-color="#F59148"/>
</linearGradient>
<linearGradient id="paint1_linear_0_1" x1="37.5001" y1="15.3809" x2="37.5001" y2="59.6191" gradientUnits="userSpaceOnUse">
<stop stop-color="#FB700D"/>
<stop offset="1" stop-color="#EC448A"/>
</linearGradient>
<linearGradient id="paint2_linear_0_1" x1="37.5001" y1="15.3809" x2="37.5001" y2="59.6191" gradientUnits="userSpaceOnUse">
<stop stop-color="#FB700D"/>
<stop offset="1" stop-color="#EC448A"/>
</linearGradient>
<linearGradient id="paint3_linear_0_1" x1="37.5" y1="14" x2="37.5" y2="61" gradientUnits="userSpaceOnUse">
<stop stop-color="#FB700D"/>
<stop offset="1" stop-color="#EC448A"/>
</linearGradient>
</defs>
</svg>
