<?xml version="1.0" encoding="UTF-8"?>
<svg width="50px" height="50px" viewBox="0 0 50 50" version="1.1" xmlns="http://www.w3.org/2000/svg" xmlns:xlink="http://www.w3.org/1999/xlink">
    <title>C9FE5F54-3FF8-4589-A650-17D8A47F893C</title>
    <defs>
        <linearGradient x1="50%" y1="100%" x2="50%" y2="0%" id="linearGradient-1">
            <stop stop-color="#FFBEF9" offset="0%"></stop>
            <stop stop-color="#FFF1FF" offset="100%"></stop>
        </linearGradient>
        <linearGradient x1="50%" y1="60%" x2="50%" y2="1.0644835e-14%" id="linearGradient-2">
            <stop stop-color="#FF81FF" offset="0%"></stop>
            <stop stop-color="#A93AFF" offset="100%"></stop>
        </linearGradient>
    </defs>
    <g id="Screens" stroke="none" stroke-width="1" fill="none" fill-rule="evenodd">
        <g id="05_dashboard" transform="translate(-420.000000, -224.000000)" fill-rule="nonzero">
            <g id="collection" transform="translate(400.000000, 204.000000)">
                <g id="card-payment" transform="translate(20.000000, 20.000000)">
                    <circle id="Oval" fill="url(#linearGradient-1)" cx="25" cy="25" r="25"></circle>
                    <path d="M32.8067383,32.8222656 L34.5416016,32.8222656 L34.5416016,31.0839844 L32.8067383,31.0839844 L32.8067383,32.8222656 Z M38.8787109,22.3925781 L18.0606445,22.3925781 C17.5811523,22.3925781 17.1932617,22.7813477 17.1932617,23.2617188 L17.1932617,37.1679688 C17.1932617,37.6483398 17.58125,38.0371094 18.0606445,38.0371094 L38.8787109,38.0371094 C39.3582031,38.0371094 39.7460938,37.6484375 39.7460938,37.1679688 L39.7460938,23.2617188 C39.7460938,22.7813477 39.3581055,22.3925781 38.8787109,22.3925781 Z M23.2651367,31.0839844 L21.5302734,31.0839844 C21.0507812,31.0839844 20.6628906,30.6953125 20.6628906,30.2148438 C20.6628906,29.734375 21.0508789,29.3457031 21.5302734,29.3457031 L23.2651367,29.3457031 C23.7446289,29.3457031 24.1325195,29.734375 24.1325195,30.2148438 C24.1325195,30.6953125 23.7446289,31.0839844 23.2651367,31.0839844 L23.2651367,31.0839844 Z M23.2651367,27.6074219 L21.5302734,27.6074219 C21.0507812,27.6074219 20.6628906,27.2186523 20.6628906,26.7382813 C20.6628906,26.2579102 21.0508789,25.8691406 21.5302734,25.8691406 L23.2651367,25.8691406 C23.7446289,25.8691406 24.1325195,26.2579102 24.1325195,26.7382813 C24.1326172,27.2186523 23.7446289,27.6074219 23.2651367,27.6074219 L23.2651367,27.6074219 Z M36.2764648,33.6914063 C36.2764648,34.1717773 35.8884766,34.5605469 35.409082,34.5605469 L31.9394531,34.5605469 C31.4599609,34.5605469 31.0720703,34.171875 31.0720703,33.6914063 L31.0720703,30.2148438 C31.0720703,29.7344727 31.4600586,29.3457031 31.9394531,29.3457031 L35.409082,29.3457031 C35.8885742,29.3457031 36.2764648,29.734375 36.2764648,30.2148438 L36.2764648,33.6914063 Z M32.8067383,20.6542969 L32.8067383,15.4394531 L10.2539062,15.4394531 L10.2539062,26.7382813 C10.2539062,27.2186523 10.6418945,27.6074219 11.1212891,27.6074219 L15.4583984,27.6074219 L15.4583984,23.2617188 C15.4583984,21.8238281 16.6256836,20.6542969 18.0606445,20.6542969 L32.8067383,20.6542969 Z M14.5910156,18.9160156 C14.1115234,18.9160156 13.7236328,18.5272461 13.7236328,18.046875 C13.7236328,17.5665039 14.1116211,17.1777344 14.5910156,17.1777344 L19.7955078,17.1777344 C20.275,17.1777344 20.6628906,17.5665039 20.6628906,18.046875 C20.6628906,18.5272461 20.2749023,18.9160156 19.7955078,18.9160156 L14.5910156,18.9160156 Z M32.8067383,12.8320312 C32.8067383,12.3516602 32.41875,11.9628906 31.9393555,11.9628906 L11.1212891,11.9628906 C10.6417969,11.9628906 10.2539062,12.3515625 10.2539062,12.8320312 L10.2539062,13.7011719 L32.8067383,13.7011719 L32.8067383,12.8320312 Z" id="Shape" fill="url(#linearGradient-2)"></path>
                </g>
            </g>
        </g>
    </g>
</svg>