<?xml version="1.0" encoding="UTF-8"?>
<svg width="50px" height="50px" viewBox="0 0 50 50" version="1.1" xmlns="http://www.w3.org/2000/svg" xmlns:xlink="http://www.w3.org/1999/xlink">
    <title>ABEE43AA-993A-4AD4-A245-CF9F60E07248</title>
    <defs>
        <linearGradient x1="50%" y1="100%" x2="50%" y2="0%" id="linearGradient-1">
            <stop stop-color="#C3FFE8" offset="0%"></stop>
            <stop stop-color="#F0FFF4" offset="99.73%"></stop>
        </linearGradient>
        <linearGradient x1="49.9998809%" y1="99.9996689%" x2="49.9998809%" y2="0%" id="linearGradient-2">
            <stop stop-color="#9CFFAC" offset="0%"></stop>
            <stop stop-color="#00B59C" offset="100%"></stop>
        </linearGradient>
    </defs>
    <g id="Screens" stroke="none" stroke-width="1" fill="none" fill-rule="evenodd">
        <g id="05_dashboard" transform="translate(-81.000000, -224.000000)" fill-rule="nonzero">
            <g id="collection" transform="translate(61.000000, 204.000000)">
                <g id="cash-back" transform="translate(20.000000, 20.000000)">
                    <circle id="Oval" fill="url(#linearGradient-1)" cx="25" cy="25" r="25"></circle>
                    <path d="M27.649707,22.7535156 C27.649707,20.6890625 29.3292969,19.009375 31.3938477,19.009375 C33.4583984,19.009375 35.1379883,20.6889648 35.1379883,22.7535156 C35.1379883,24.8180664 33.4583984,26.4976562 31.3938477,26.4976562 C29.3292969,26.4976562 27.649707,24.8180664 27.649707,22.7535156 L27.649707,22.7535156 Z M36.0019531,17.7421875 C38.0665039,17.7421875 39.7460937,16.0625977 39.7460937,13.9980469 C39.7460937,11.9334961 38.0665039,10.2539062 36.0019531,10.2539062 C33.9374023,10.2539062 32.2578125,11.9334961 32.2578125,13.9980469 C32.2578125,16.0625977 33.9374023,17.7421875 36.0019531,17.7421875 Z M24.481543,20.1614258 C26.5460937,20.1614258 28.2256836,18.4818359 28.2256836,16.4172852 C28.2256836,14.3527344 26.5460937,12.6731445 24.481543,12.6731445 C22.4169922,12.6731445 20.7374023,14.3527344 20.7374023,16.4172852 C20.7374023,18.4818359 22.4170898,20.1614258 24.481543,20.1614258 L24.481543,20.1614258 Z M12.9612305,26.4976562 L11.1179687,26.4976562 C10.6408203,26.4976562 10.2539062,26.8844727 10.2539062,27.3617188 L10.2539062,38.8821289 C10.2539062,39.3592773 10.6407227,39.7461914 11.1179687,39.7461914 L12.9612305,39.7461914 C13.4383789,39.7461914 13.825293,39.359375 13.825293,38.8821289 L13.825293,27.3617188 C13.8251953,26.8844727 13.4383789,26.4976562 12.9612305,26.4976562 Z M36.4507813,28.0365234 L31.6435547,30.9208984 C31.3768555,32.8253906 29.7073242,34.2739258 27.734668,34.2739258 L23.0415039,34.2739258 C22.5643555,34.2739258 22.1774414,33.8871094 22.1774414,33.4098633 C22.1774414,32.9327148 22.5642578,32.5458008 23.0415039,32.5458008 L27.7936523,32.5458008 C28.9866211,32.5458008 29.9537109,31.5787109 29.9537109,30.3857422 C29.9537109,29.1927734 28.9866211,28.2256836 27.7936523,28.2256836 L22.9836914,28.2256836 C21.04375,27.159375 18.7029297,27.159375 16.7629883,28.2256836 L15.5532227,28.2256836 L15.5532227,38.0179688 L28.0712891,38.0179688 C29.5668945,38.0179688 31.022168,37.5329102 32.2186523,36.6355469 L38.8756836,31.6427734 C39.7676758,30.9738281 40.0095703,29.7388672 39.4359375,28.7828125 C38.8176758,27.7524414 37.4811523,27.4183594 36.4507813,28.0365234 Z" id="Shape" fill="url(#linearGradient-2)"></path>
                </g>
            </g>
        </g>
    </g>
</svg>