<?xml version="1.0" encoding="UTF-8"?>
<svg width="20px" height="21px" viewBox="0 0 20 21" version="1.1" xmlns="http://www.w3.org/2000/svg" xmlns:xlink="http://www.w3.org/1999/xlink">
    <title>A2BC6CE7-B8A7-45A6-9288-BF7B5E4C7863</title>
    <g id="Screens" stroke="none" stroke-width="1" fill="none" fill-rule="evenodd">
        <g id="03_vendor-payment" transform="translate(-1295.000000, -292.000000)" fill="#47B6E7" fill-rule="nonzero">
            <g id="2.-Outlined/2.-Text+Icon/Enabled" transform="translate(1284.000000, 271.000000)">
                <g id="filter-(1)" transform="translate(11.000000, 21.000000)">
                    <path d="M0.625,3.53542969 L10.1408203,3.53542969 C10.4276172,4.84085938 11.5933984,5.82089844 12.9837109,5.82089844 C14.3740234,5.82089844 15.5398047,4.84089844 15.8266016,3.53542969 L19.375,3.53542969 C19.7201563,3.53542969 20,3.25558594 20,2.91042969 C20,2.56527344 19.7201563,2.28542969 19.375,2.28542969 L15.8262891,2.28542969 C15.5389453,0.980664062 14.3715625,0 12.9837109,0 C11.5951172,0 10.4282813,0.980507813 10.1410547,2.28542969 L0.625,2.28542969 C0.27984375,2.28542969 1.77635684e-15,2.56527344 1.77635684e-15,2.91042969 C1.77635684e-15,3.25558594 0.27984375,3.53542969 0.625,3.53542969 Z M11.3233203,2.91207031 C11.3233203,2.90984375 11.3233594,2.90757813 11.3233594,2.90535156 C11.3260938,1.99257813 12.0708984,1.25003906 12.9837109,1.25003906 C13.8952344,1.25003906 14.6400781,1.9915625 14.6440234,2.90390625 L14.6441406,2.91308594 C14.6426953,3.82742188 13.8983984,4.5709375 12.9837109,4.5709375 C12.0694141,4.5709375 11.3253516,3.82816406 11.3232813,2.914375 L11.3233203,2.91207031 Z M19.375,16.4839062 L15.8262891,16.4839062 C15.5389063,15.1791797 14.3715625,14.1984766 12.9837109,14.1984766 C11.5951172,14.1984766 10.4282813,15.1790234 10.1410547,16.4839062 L0.625,16.4839062 C0.27984375,16.4839062 1.77635684e-15,16.7637109 1.77635684e-15,17.1089062 C1.77635684e-15,17.4541016 0.27984375,17.7339062 0.625,17.7339062 L10.1408203,17.7339062 C10.4276172,19.0393359 11.5933984,20.019375 12.9837109,20.019375 C14.3740234,20.019375 15.5398047,19.0393359 15.8266016,17.7339063 L19.375,17.7339063 C19.7201563,17.7339063 20,17.4541016 20,17.1089063 C20,16.7637109 19.7201563,16.4839063 19.375,16.4839063 L19.375,16.4839062 Z M12.9837109,18.769375 C12.0694141,18.769375 11.3253516,18.0266016 11.3232813,17.1128125 L11.3233203,17.1105469 C11.3233203,17.1082813 11.3233594,17.1060547 11.3233594,17.1038281 C11.3260937,16.1910547 12.0708984,15.4484766 12.9837109,15.4484766 C13.8952344,15.4484766 14.6400781,16.19 14.6440234,17.1023047 L14.6441406,17.1114844 C14.6428125,18.0259375 13.8984766,18.769375 12.9837109,18.769375 L12.9837109,18.769375 Z M19.375,9.3846875 L9.85917969,9.3846875 C9.57238281,8.07925781 8.40660156,7.09925781 7.01628906,7.09925781 C5.62597656,7.09925781 4.46019531,8.07925781 4.17339844,9.3846875 L0.625,9.3846875 C0.27984375,9.3846875 0,9.66453125 0,10.0096875 C0,10.3548828 0.27984375,10.6346875 0.625,10.6346875 L4.17371094,10.6346875 C4.46109375,11.9394141 5.6284375,12.9201172 7.01628906,12.9201172 C8.40488281,12.9201172 9.57171875,11.9395703 9.85894531,10.6346875 L19.375,10.6346875 C19.7201563,10.6346875 20,10.3548828 20,10.0096875 C20,9.66453125 19.7201563,9.3846875 19.375,9.3846875 Z M8.67667969,10.0080469 C8.67667969,10.0103125 8.67664062,10.0125391 8.67664062,10.0147656 C8.67390625,10.9275391 7.92910156,11.6700781 7.01628906,11.6700781 C6.10476562,11.6700781 5.35992187,10.9285547 5.35597656,10.01625 L5.35585937,10.0071094 C5.35722656,9.09265625 6.1015625,8.34925781 7.01628906,8.34925781 C7.93058594,8.34925781 8.67464844,9.09199219 8.67671875,10.0058203 L8.67667969,10.0080469 Z" id="Shape"></path>
                </g>
            </g>
        </g>
    </g>
</svg>