<svg width="435" height="435" viewBox="0 0 435 435" fill="none" xmlns="http://www.w3.org/2000/svg">
<circle cx="217.5" cy="217.5" r="217.5" fill="#E6E6E6"/>
<circle cx="186" cy="241" r="111" fill="#B8B8B8"/>
<path d="M275.536 82C277.076 79.3333 280.925 79.3333 282.464 82L371.665 236.5C373.204 239.167 371.28 242.5 368.201 242.5H189.799C186.72 242.5 184.796 239.167 186.335 236.5L275.536 82Z" fill="#B8B8B8"/>
<mask id="mask0_0_1" style="mask-type:alpha" maskUnits="userSpaceOnUse" x="75" y="130" width="222" height="222">
<circle cx="186" cy="241" r="111" fill="#B8B8B8"/>
</mask>
<g mask="url(#mask0_0_1)">
<path d="M275.536 82C277.076 79.3333 280.925 79.3333 282.464 82L371.665 236.5C373.204 239.167 371.28 242.5 368.201 242.5H189.799C186.72 242.5 184.796 239.167 186.335 236.5L275.536 82Z" fill="#E6E6E6"/>
</g>
</svg>
